<svg width="48" height="48" viewBox="0 0 48 48" fill="none" xmlns="http://www.w3.org/2000/svg">
<g filter="url(#filter0_d)">
<path d="M4 20C4 8.95431 12.9543 0 24 0C35.0457 0 44 8.95431 44 20C44 31.0457 35.0457 40 24 40C12.9543 40 4 31.0457 4 20Z" fill="#F7F7F7"/>
<path d="M24.81 7.95117C17.76 7.95117 14.205 13.0062 14.205 17.2212C14.205 19.7762 15.1737 22.0449 17.2437 22.8899C17.585 23.0299 17.8887 22.8962 17.9875 22.5212C18.0562 22.2599 18.2175 21.5999 18.2912 21.3262C18.3925 20.9574 18.3525 20.8262 18.08 20.5012C17.4812 19.7974 17.1 18.8812 17.1 17.5899C17.1 13.8399 19.905 10.4837 24.4062 10.4837C28.3925 10.4837 30.5825 12.9224 30.5825 16.1699C30.5825 20.4499 28.6875 24.0599 25.8762 24.0599C24.3225 24.0599 23.1612 22.7762 23.535 21.2012C23.9812 19.3174 24.845 17.2899 24.845 15.9349C24.845 14.7199 24.1912 13.7087 22.845 13.7087C21.2587 13.7087 19.9812 15.3487 19.9812 17.5487C19.9812 18.9499 20.4575 19.8974 20.4575 19.8974C20.4575 19.8974 18.8312 26.7787 18.5475 27.9837C17.9812 30.3837 18.4625 33.3274 18.5062 33.6249C18.5275 33.7987 18.755 33.8437 18.8562 33.7099C19.0025 33.5187 20.895 31.1812 21.535 28.8512C21.72 28.1912 22.58 24.7762 22.58 24.7762C23.0987 25.7574 24.6012 26.6224 26.205 26.6224C30.9762 26.6224 34.2112 22.2762 34.2112 16.4512C34.2062 12.0512 30.4775 7.95117 24.8112 7.95117H24.81Z" fill="#134731"/>
</g>
<defs>
<filter id="filter0_d" x="0" y="0" width="48" height="48" filterUnits="userSpaceOnUse" color-interpolation-filters="sRGB">
<feFlood flood-opacity="0" result="BackgroundImageFix"/>
<feColorMatrix in="SourceAlpha" type="matrix" values="0 0 0 0 0 0 0 0 0 0 0 0 0 0 0 0 0 0 127 0"/>
<feOffset dy="4"/>
<feGaussianBlur stdDeviation="2"/>
<feColorMatrix type="matrix" values="0 0 0 0 0 0 0 0 0 0 0 0 0 0 0 0 0 0 0.25 0"/>
<feBlend mode="normal" in2="BackgroundImageFix" result="effect1_dropShadow"/>
<feBlend mode="normal" in="SourceGraphic" in2="effect1_dropShadow" result="shape"/>
</filter>
</defs>
</svg>
